<svg width="16" height="16" viewBox="0 0 16 16" fill="none" xmlns="http://www.w3.org/2000/svg">
    <g opacity="0.4">
        <path d="M12.883027 5.8116C12.883027 5.8116 12.521027 10.3016 12.311027 12.192933C12.211027 13.096267 11.653027 13.6256 10.739027 13.642267C8.999693 13.6736 7.25836 13.6756 5.519693 13.638933C4.64036 13.620933 4.091693 13.084933 3.993693 12.1976C3.78236 10.2896 3.42236 5.8116 3.42236 5.8116M13.805333 3.659347H2.5M11.626893 3.659333C11.10356 3.659333 10.652893 3.289333 10.550227 2.776667L10.388227 1.966C10.288227 1.592 9.94956 1.333333 9.56356 1.333333H6.74156C6.35556 1.333333 6.016893 1.592 5.916893 1.966L5.754893 2.776667C5.652227 3.289333 5.20156 3.659333 4.678227 3.659333" stroke="#91C3FF" stroke-width="1.33333" stroke-linecap="round" stroke-linejoin="round"/>
    </g>
</svg>
